<svg id="visual" viewBox="0 0 960 540" width="960" height="540" xmlns="http://www.w3.org/2000/svg" xmlns:xlink="http://www.w3.org/1999/xlink" version="1.1"><rect x="0" y="0" width="960" height="540" fill="#0c0909"></rect><path d="M0 388L22.8 397.5C45.7 407 91.3 426 137 436.7C182.7 447.3 228.3 449.7 274 441.2C319.7 432.7 365.3 413.3 411.2 397.2C457 381 503 368 548.8 368.5C594.7 369 640.3 383 686 396.2C731.7 409.3 777.3 421.7 823 413.2C868.7 404.7 914.3 375.3 937.2 360.7L960 346L960 541L937.2 541C914.3 541 868.7 541 823 541C777.3 541 731.7 541 686 541C640.3 541 594.7 541 548.8 541C503 541 457 541 411.2 541C365.3 541 319.7 541 274 541C228.3 541 182.7 541 137 541C91.3 541 45.7 541 22.8 541L0 541Z" fill="#9c3535" stroke-linecap="round" stroke-linejoin="miter"></path></svg>