<svg id="visual" viewBox="0 0 960 540" width="960" height="540" xmlns="http://www.w3.org/2000/svg" xmlns:xlink="http://www.w3.org/1999/xlink" version="1.1"><rect x="0" y="0" width="960" height="540" fill="#09101b"></rect><path d="M0 372L26.7 386C53.3 400 106.7 428 160 436.5C213.3 445 266.7 434 320 420.2C373.3 406.3 426.7 389.7 480 390.2C533.3 390.7 586.7 408.3 640 407.2C693.3 406 746.7 386 800 375.8C853.3 365.7 906.7 365.3 933.3 365.2L960 365L960 541L933.3 541C906.7 541 853.3 541 800 541C746.7 541 693.3 541 640 541C586.7 541 533.3 541 480 541C426.7 541 373.3 541 320 541C266.7 541 213.3 541 160 541C106.7 541 53.3 541 26.7 541L0 541Z" fill="#6457ff" stroke-linecap="round" stroke-linejoin="miter"></path></svg>